<?xml version="1.0" encoding="UTF-8"?>
<svg xmlns="http://www.w3.org/2000/svg" xmlns:xlink="http://www.w3.org/1999/xlink" viewBox="0 0 1200 360" role="img" aria-labelledby="title description">
  <title id="title">Las Palmas Business Center — LP Horizon</title>
  <desc id="description">A compact LP monogram crossed by a golden horizon, designed for signage, social avatars, and small digital applications.</desc>
  <g id="symbol">
    <g transform="translate(60 45)">
      <circle cx="202" cy="132" r="43" fill="#F4A700"/>
      <path d="M30 22H60V208H116V238H30Z" fill="#073B4C"/>
      <path fill-rule="evenodd" d="M134 22H194C235 22 260 45 260 82C260 120 235 143 194 143H164V238H134ZM164 52V113H191C216 113 230 103 230 82C230 62 216 52 191 52Z" fill="#075D7A"/>
      <path d="M18 172H264V190H18Z" fill="#F4A700"/>
      <path d="M134 172H264V190H134Z" fill="#073B4C"/>
    </g></g>
  <g id="outlined-wordmark"><g transform="translate(372 101) scale(1.12)">
<defs>
<g>
<g id="lp-horizon-glyph-0-0">
<path d="M 2.894531 -27.351562 L 8.609375 -27.351562 L 8.609375 -4.917969 L 22.15625 -4.917969 L 22.15625 0 L 2.894531 0 Z M 2.894531 -27.351562 "/>
</g>
<g id="lp-horizon-glyph-0-1">
<path d="M 18.90625 -5.621094 L 8.832031 -5.621094 L 6.9375 0 L 0.964844 0 L 10.726562 -27.351562 L 17.179688 -27.351562 L 26.867188 0 L 20.671875 0 Z M 17.3125 -10.335938 L 13.898438 -21.097656 L 10.371094 -10.335938 Z M 17.3125 -10.335938 "/>
</g>
<g id="lp-horizon-glyph-0-2">
<path d="M 12.820312 -3.953125 C 14.167969 -3.953125 15.265625 -4.101562 16.105469 -4.398438 C 17.703125 -4.96875 18.5 -6.023438 18.5 -7.570312 C 18.5 -8.472656 18.101562 -9.171875 17.3125 -9.667969 C 16.519531 -10.148438 15.277344 -10.578125 13.582031 -10.945312 L 10.6875 -11.597656 C 7.84375 -12.242188 5.875 -12.9375 4.789062 -13.695312 C 2.945312 -14.957031 2.023438 -16.929688 2.023438 -19.613281 C 2.023438 -22.0625 2.914062 -24.097656 4.695312 -25.71875 C 6.476562 -27.335938 9.09375 -28.148438 12.542969 -28.148438 C 15.425781 -28.148438 17.882812 -27.382812 19.917969 -25.855469 C 21.953125 -24.328125 23.019531 -22.109375 23.117188 -19.203125 L 17.625 -19.203125 C 17.527344 -20.847656 16.8125 -22.019531 15.476562 -22.710938 C 14.585938 -23.167969 13.476562 -23.398438 12.152344 -23.398438 C 10.679688 -23.398438 9.507812 -23.101562 8.628906 -22.507812 C 7.75 -21.914062 7.3125 -21.085938 7.3125 -20.019531 C 7.3125 -19.042969 7.742188 -18.3125 8.609375 -17.832031 C 9.164062 -17.507812 10.351562 -17.132812 12.171875 -16.699219 L 16.882812 -15.566406 C 18.949219 -15.070312 20.507812 -14.410156 21.5625 -13.582031 C 23.195312 -12.296875 24.007812 -10.433594 24.007812 -7.996094 C 24.007812 -5.5 23.054688 -3.421875 21.144531 -1.773438 C 19.234375 -0.121094 16.53125 0.703125 13.042969 0.703125 C 9.480469 0.703125 6.679688 -0.109375 4.640625 -1.734375 C 2.597656 -3.359375 1.578125 -5.597656 1.578125 -8.441406 L 7.03125 -8.441406 C 7.203125 -7.191406 7.546875 -6.257812 8.054688 -5.640625 C 8.980469 -4.515625 10.570312 -3.953125 12.820312 -3.953125 Z M 12.820312 -3.953125 "/>
</g>
<g id="lp-horizon-glyph-0-3">
<rect x="0" y="0" width="0" height="0" mask="url(#lp-horizon-mask-0)"/>
</g>
<g id="lp-horizon-glyph-0-4">
<path d="M 14.507812 -9.835938 L 8.703125 -9.835938 L 8.703125 0 L 3.023438 0 L 3.023438 -27.351562 L 14.9375 -27.351562 C 17.683594 -27.351562 19.871094 -26.644531 21.503906 -25.234375 C 23.136719 -23.824219 23.953125 -21.640625 23.953125 -18.683594 C 23.953125 -15.457031 23.136719 -13.171875 21.503906 -11.835938 C 19.871094 -10.5 17.539062 -9.835938 14.507812 -9.835938 Z M 17.179688 -15.53125 C 17.921875 -16.1875 18.296875 -17.226562 18.296875 -18.648438 C 18.296875 -20.070312 17.921875 -21.085938 17.171875 -21.691406 C 16.421875 -22.296875 15.375 -22.601562 14.027344 -22.601562 L 8.703125 -22.601562 L 8.703125 -14.546875 L 14.027344 -14.546875 C 15.375 -14.546875 16.425781 -14.875 17.179688 -15.53125 Z M 17.179688 -15.53125 "/>
</g>
<g id="lp-horizon-glyph-0-5">
<path d="M 8.125 0 L 2.800781 0 L 2.800781 -27.351562 L 11.113281 -27.351562 L 16.085938 -5.84375 L 21.023438 -27.351562 L 29.242188 -27.351562 L 29.242188 0 L 23.917969 0 L 23.917969 -18.5 C 23.917969 -19.03125 23.921875 -19.777344 23.9375 -20.734375 C 23.949219 -21.695312 23.953125 -22.433594 23.953125 -22.953125 L 18.777344 0 L 13.230469 0 L 8.089844 -22.953125 C 8.089844 -22.433594 8.097656 -21.695312 8.109375 -20.734375 C 8.121094 -19.777344 8.125 -19.03125 8.125 -18.5 Z M 8.125 0 "/>
</g>
<g id="lp-horizon-glyph-1-0">
<path d="M 23.164062 -27.742188 C 25.910156 -27.742188 28.046875 -28.125 29.574219 -28.886719 C 31.972656 -30.085938 33.171875 -32.246094 33.171875 -35.363281 C 33.171875 -38.503906 31.898438 -40.621094 29.34375 -41.710938 C 27.90625 -42.320312 25.769531 -42.628906 22.933594 -42.628906 L 11.320312 -42.628906 L 11.320312 -27.742188 Z M 25.355469 -5.5625 C 29.34375 -5.5625 32.191406 -6.71875 33.890625 -9.03125 C 34.960938 -10.492188 35.496094 -12.257812 35.496094 -14.328125 C 35.496094 -17.820312 33.9375 -20.195312 30.816406 -21.460938 C 29.160156 -22.136719 26.96875 -22.476562 24.242188 -22.476562 L 11.320312 -22.476562 L 11.320312 -5.5625 Z M 4.941406 -48.058594 L 25.582031 -48.058594 C 31.210938 -48.058594 35.210938 -46.378906 37.589844 -43.019531 C 38.984375 -41.035156 39.683594 -38.746094 39.683594 -36.148438 C 39.683594 -33.117188 38.820312 -30.632812 37.097656 -28.691406 C 36.203125 -27.664062 34.917969 -26.726562 33.238281 -25.878906 C 35.703125 -24.941406 37.546875 -23.882812 38.765625 -22.703125 C 40.925781 -20.609375 42.007812 -17.71875 42.007812 -14.035156 C 42.007812 -10.9375 41.035156 -8.136719 39.09375 -5.625 C 36.195312 -1.875 31.582031 0 25.257812 0 L 4.941406 0 Z M 4.941406 -48.058594 "/>
</g>
<g id="lp-horizon-glyph-1-1">
<path d="M 12.171875 -48.058594 L 12.171875 -18.351562 C 12.171875 -14.863281 12.824219 -11.960938 14.132812 -9.652344 C 16.074219 -6.160156 19.34375 -4.417969 23.945312 -4.417969 C 29.464844 -4.417969 33.214844 -6.304688 35.203125 -10.078125 C 36.269531 -12.125 36.804688 -14.886719 36.804688 -18.351562 L 36.804688 -48.058594 L 43.414062 -48.058594 L 43.414062 -21.070312 C 43.414062 -15.160156 42.617188 -10.609375 41.023438 -7.425781 C 38.101562 -1.625 32.585938 1.277344 24.46875 1.277344 C 16.355469 1.277344 10.851562 -1.625 7.949219 -7.425781 C 6.359375 -10.609375 5.5625 -15.15625 5.5625 -21.070312 L 5.5625 -48.058594 Z M 12.171875 -48.058594 "/>
</g>
<g id="lp-horizon-glyph-1-2">
<path d="M 9.355469 -15.507812 C 9.507812 -12.78125 10.152344 -10.566406 11.285156 -8.867188 C 13.445312 -5.683594 17.25 -4.089844 22.703125 -4.089844 C 25.148438 -4.089844 27.371094 -4.4375 29.378906 -5.136719 C 33.261719 -6.488281 35.203125 -8.910156 35.203125 -12.398438 C 35.203125 -15.015625 34.382812 -16.882812 32.746094 -17.992188 C 31.089844 -19.082031 28.496094 -20.03125 24.960938 -20.839844 L 18.453125 -22.3125 C 14.199219 -23.273438 11.1875 -24.328125 9.421875 -25.484375 C 6.367188 -27.492188 4.84375 -30.492188 4.84375 -34.480469 C 4.84375 -38.800781 6.335938 -42.34375 9.324219 -45.113281 C 12.3125 -47.882812 16.542969 -49.269531 22.015625 -49.269531 C 27.054688 -49.269531 31.335938 -48.050781 34.859375 -45.621094 C 38.378906 -43.1875 40.140625 -39.300781 40.140625 -33.957031 L 34.023438 -33.957031 C 33.695312 -36.53125 33 -38.503906 31.929688 -39.878906 C 29.945312 -42.386719 26.574219 -43.640625 21.820312 -43.640625 C 17.980469 -43.640625 15.222656 -42.835938 13.542969 -41.21875 C 11.863281 -39.605469 11.023438 -37.730469 11.023438 -35.59375 C 11.023438 -33.238281 12.007812 -31.515625 13.96875 -30.425781 C 15.257812 -29.726562 18.167969 -28.855469 22.703125 -27.808594 L 29.445312 -26.269531 C 32.695312 -25.527344 35.203125 -24.515625 36.96875 -23.226562 C 40.023438 -20.980469 41.546875 -17.71875 41.546875 -13.445312 C 41.546875 -8.125 39.613281 -4.320312 35.742188 -2.027344 C 31.871094 0.261719 27.371094 1.40625 22.246094 1.40625 C 16.269531 1.40625 11.59375 -0.121094 8.210938 -3.171875 C 4.832031 -6.203125 3.171875 -10.316406 3.238281 -15.507812 Z M 9.355469 -15.507812 "/>
</g>
<g id="lp-horizon-glyph-1-3">
<path d="M 6.574219 -48.058594 L 13.152344 -48.058594 L 13.152344 0 L 6.574219 0 Z M 6.574219 -48.058594 "/>
</g>
<g id="lp-horizon-glyph-1-4">
<path d="M 5.101562 -48.058594 L 12.792969 -48.058594 L 37.066406 -9.128906 L 37.066406 -48.058594 L 43.25 -48.058594 L 43.25 0 L 35.953125 0 L 11.320312 -38.898438 L 11.320312 0 L 5.101562 0 Z M 5.101562 -48.058594 "/>
</g>
<g id="lp-horizon-glyph-1-5">
<path d="M 5.726562 -48.058594 L 40.761719 -48.058594 L 40.761719 -42.167969 L 12.070312 -42.167969 L 12.070312 -27.578125 L 38.601562 -27.578125 L 38.601562 -22.015625 L 12.070312 -22.015625 L 12.070312 -5.726562 L 41.253906 -5.726562 L 41.253906 0 L 5.726562 0 Z M 5.726562 -48.058594 "/>
</g>
<g id="lp-horizon-glyph-1-6">
<rect x="0" y="0" width="0" height="0" mask="url(#lp-horizon-mask-1)"/>
</g>
<g id="lp-horizon-glyph-1-7">
<path d="M 25.355469 -49.367188 C 31.4375 -49.367188 36.160156 -47.765625 39.519531 -44.558594 C 42.878906 -41.351562 44.742188 -37.710938 45.113281 -33.632812 L 38.765625 -33.632812 C 38.046875 -36.726562 36.613281 -39.179688 34.464844 -40.992188 C 32.316406 -42.800781 29.300781 -43.707031 25.417969 -43.707031 C 20.6875 -43.707031 16.863281 -42.042969 13.953125 -38.71875 C 11.042969 -35.390625 9.585938 -30.292969 9.585938 -23.421875 C 9.585938 -17.796875 10.898438 -13.234375 13.527344 -9.734375 C 16.15625 -6.234375 20.074219 -4.480469 25.289062 -4.480469 C 30.085938 -4.480469 33.738281 -6.324219 36.25 -10.011719 C 37.578125 -11.953125 38.570312 -14.503906 39.226562 -17.664062 L 45.570312 -17.664062 C 45.003906 -12.605469 43.128906 -8.363281 39.945312 -4.941406 C 36.128906 -0.820312 30.980469 1.242188 24.503906 1.242188 C 18.921875 1.242188 14.230469 -0.445312 10.4375 -3.828125 C 5.441406 -8.296875 2.945312 -15.203125 2.945312 -24.535156 C 2.945312 -31.625 4.820312 -37.4375 8.570312 -41.972656 C 12.628906 -46.902344 18.222656 -49.367188 25.355469 -49.367188 Z M 25.355469 -49.367188 "/>
</g>
<g id="lp-horizon-glyph-1-8">
<path d="M 40.074219 -48.058594 L 40.074219 -42.332031 L 23.882812 -42.332031 L 23.882812 0 L 17.273438 0 L 17.273438 -42.332031 L 1.078125 -42.332031 L 1.078125 -48.058594 Z M 40.074219 -48.058594 "/>
</g>
<g id="lp-horizon-glyph-1-9">
<path d="M 27.449219 -26.039062 C 30.5 -26.039062 32.917969 -26.652344 34.695312 -27.875 C 36.472656 -29.09375 37.359375 -31.296875 37.359375 -34.480469 C 37.359375 -37.90625 36.117188 -40.238281 33.632812 -41.484375 C 32.300781 -42.136719 30.523438 -42.464844 28.296875 -42.464844 L 12.398438 -42.464844 L 12.398438 -26.039062 Z M 5.890625 -48.058594 L 28.132812 -48.058594 C 31.796875 -48.058594 34.820312 -47.523438 37.195312 -46.453125 C 41.710938 -44.40625 43.96875 -40.621094 43.96875 -35.101562 C 43.96875 -32.222656 43.375 -29.867188 42.1875 -28.035156 C 40.996094 -26.203125 39.335938 -24.734375 37.195312 -23.621094 C 39.070312 -22.855469 40.484375 -21.851562 41.433594 -20.609375 C 42.382812 -19.367188 42.910156 -17.351562 43.019531 -14.558594 L 43.25 -8.113281 C 43.316406 -6.28125 43.46875 -4.917969 43.707031 -4.023438 C 44.101562 -2.496094 44.796875 -1.515625 45.800781 -1.078125 L 45.800781 0 L 37.820312 0 C 37.601562 -0.414062 37.425781 -0.949219 37.296875 -1.601562 C 37.164062 -2.257812 37.054688 -3.523438 36.96875 -5.398438 L 36.574219 -13.414062 C 36.421875 -16.554688 35.253906 -18.660156 33.074219 -19.726562 C 31.832031 -20.316406 29.878906 -20.609375 27.21875 -20.609375 L 12.398438 -20.609375 L 12.398438 0 L 5.890625 0 Z M 5.890625 -48.058594 "/>
</g>
</g>
<image id="lp-horizon-source-13" x="0" y="0" width="0" height="0"/>
<mask id="lp-horizon-mask-0">
<use xlink:href="#lp-horizon-source-13"/>
</mask>
<image id="lp-horizon-source-22" x="0" y="0" width="0" height="0"/>
<mask id="lp-horizon-mask-1">
<use xlink:href="#lp-horizon-source-22"/>
</mask>
</defs>
<g fill="rgb(95.686275%, 65.490196%, 0%)" fill-opacity="1">
<use xlink:href="#lp-horizon-glyph-0-0" x="0" y="29.260742"/>
<use xlink:href="#lp-horizon-glyph-0-1" x="26.417969" y="29.260742"/>
<use xlink:href="#lp-horizon-glyph-0-2" x="56.835938" y="29.260742"/>
<use xlink:href="#lp-horizon-glyph-0-3" x="85.253906" y="29.260742"/>
<use xlink:href="#lp-horizon-glyph-0-4" x="99.671875" y="29.260742"/>
<use xlink:href="#lp-horizon-glyph-0-1" x="126.089844" y="29.260742"/>
<use xlink:href="#lp-horizon-glyph-0-0" x="156.507812" y="29.260742"/>
<use xlink:href="#lp-horizon-glyph-0-5" x="182.925781" y="29.260742"/>
<use xlink:href="#lp-horizon-glyph-0-1" x="218.34375" y="29.260742"/>
<use xlink:href="#lp-horizon-glyph-0-2" x="248.761719" y="29.260742"/>
</g>
<g fill="rgb(2.745098%, 23.137255%, 29.803922%)" fill-opacity="1">
<use xlink:href="#lp-horizon-glyph-1-0" x="0" y="81.520508"/>
<use xlink:href="#lp-horizon-glyph-1-1" x="46.123047" y="81.520508"/>
<use xlink:href="#lp-horizon-glyph-1-2" x="95.246094" y="81.520508"/>
<use xlink:href="#lp-horizon-glyph-1-3" x="141.369141" y="81.520508"/>
<use xlink:href="#lp-horizon-glyph-1-4" x="161.492188" y="81.520508"/>
<use xlink:href="#lp-horizon-glyph-1-5" x="210.615234" y="81.520508"/>
<use xlink:href="#lp-horizon-glyph-1-2" x="256.738281" y="81.520508"/>
<use xlink:href="#lp-horizon-glyph-1-2" x="302.861328" y="81.520508"/>
<use xlink:href="#lp-horizon-glyph-1-6" x="348.984375" y="81.520508"/>
<use xlink:href="#lp-horizon-glyph-1-7" x="369.107422" y="81.520508"/>
<use xlink:href="#lp-horizon-glyph-1-5" x="418.230469" y="81.520508"/>
<use xlink:href="#lp-horizon-glyph-1-4" x="464.353516" y="81.520508"/>
<use xlink:href="#lp-horizon-glyph-1-8" x="513.476562" y="81.520508"/>
<use xlink:href="#lp-horizon-glyph-1-5" x="555.599609" y="81.520508"/>
<use xlink:href="#lp-horizon-glyph-1-9" x="601.722656" y="81.520508"/>
</g>
</g></g>
</svg>
